<?xml version="1.0" encoding="UTF-8"?>
<svg id="katman_1" data-name="katman 1" xmlns="http://www.w3.org/2000/svg" viewBox="0 0 56.69 56.69">
  <defs>
    <style>
      .cls-1 {
        fill: #c8693a;
        fill-rule: evenodd;
        stroke-width: 0px;
      }
    </style>
  </defs>
  <path class="cls-1" d="M44.88,0H11.81C5.2,0,0,5.2,0,11.81v33.07c0,6.61,5.2,11.81,11.81,11.81h33.07c6.61,0,11.81-5.2,11.81-11.81V11.81C56.69,5.2,51.49,0,44.88,0ZM35.63,21.98c2.64,1.87,5.77,2.91,9.02,2.91v-6.46c-1.76,0-3.44-.54-4.93-1.49-2.06-1.34-3.52-3.48-3.94-5.93-.08-.54-.15-1.07-.15-1.64h-6.46v25.73c0,3.02-2.45,5.47-5.47,5.5-.57,0-1.15-.08-1.68-.27-2.91-.96-4.47-4.05-3.52-6.96.54-1.64,1.83-2.94,3.44-3.48,1.11-.38,2.29-.38,3.36-.04v-6.61c-2.41-.34-4.86.08-7.03,1.19-2.18,1.11-3.94,2.83-5.08,4.97-2.37,4.4-1.76,9.79,1.49,13.57,3.25,3.75,8.52,5.08,13.19,3.36,2.29-.84,4.24-2.37,5.62-4.4,1.38-1.99,2.14-4.4,2.14-6.8v-13.15h0Z"/>
</svg>