<?xml version="1.0" encoding="UTF-8"?>
<svg id="katman_1" data-name="katman 1" xmlns="http://www.w3.org/2000/svg" viewBox="0 0 56.69 56.69">
  <defs>
    <style>
      .cls-1 {
        fill: #c8693a;
        stroke-width: 0px;
      }
    </style>
  </defs>
  <path class="cls-1" d="M34.29,28.29l-9.82-4.97v9.94l9.82-4.97ZM44.84.08H11.85C5.24.08.08,5.28.08,11.85v32.99c0,6.61,5.2,11.77,11.77,11.77h32.99c6.61,0,11.77-5.2,11.77-11.77V11.85c.04-6.61-5.16-11.77-11.77-11.77ZM43.01,17.2c1.61.38,2.91,1.53,3.33,2.98.8,2.64.8,8.1.8,8.1,0,0,0,5.47-.8,8.1-.42,1.45-1.72,2.52-3.33,2.94-2.94.69-14.68.69-14.68.69,0,0-11.77,0-14.68-.69-1.61-.38-2.91-1.49-3.33-2.94-.8-2.64-.8-8.1-.8-8.1,0,0,0-5.47.8-8.1.42-1.45,1.72-2.6,3.33-2.98,2.94-.69,14.68-.69,14.68-.69,0,0,11.74,0,14.68.69Z"/>
</svg>