<?xml version="1.0" encoding="UTF-8"?>
<svg id="katman_1" data-name="katman 1" xmlns="http://www.w3.org/2000/svg" viewBox="0 0 56.69 56.69">
  <defs>
    <style>
      .cls-1 {
        fill: #c8693a;
        stroke-width: 0px;
      }
    </style>
  </defs>
  <path class="cls-1" d="M35.86,13.04h-15.06c-5.2.23-7.53,2.6-7.76,7.76v15.06c.23,4.93,2.6,7.53,7.76,7.76h15.06c5.2-.23,7.53-2.6,7.76-7.76v-15.06c-.19-5.16-2.56-7.49-7.76-7.76ZM28.33,38.04c-5.43,0-9.67-4.24-9.67-9.67s4.24-9.67,9.67-9.67,9.67,4.24,9.67,9.67-4.24,9.67-9.67,9.67ZM38.46,20.61c-1.19,0-2.37-.96-2.37-2.37s.96-2.37,2.37-2.37c1.19,0,2.37.96,2.37,2.37,0,1.41-1.19,2.37-2.37,2.37ZM34.71,28.37c0,3.52-2.83,6.35-6.35,6.35s-6.35-2.83-6.35-6.35,2.83-6.35,6.35-6.35c3.52,0,6.35,2.83,6.35,6.35ZM44.84.08H11.85C5.24.08.08,5.28.08,11.85v32.99c0,6.61,5.2,11.77,11.77,11.77h32.99c6.61,0,11.77-5.2,11.77-11.77V11.85c0-6.58-5.2-11.77-11.77-11.77ZM47.17,36.13c-.23,6.84-4.24,10.59-11.09,11.09h-15.56c-6.84-.23-10.59-4.01-11.09-11.09v-15.56c.46-6.84,4.24-10.59,11.09-11.09h15.56c6.84.23,10.59,4.24,11.09,11.09v15.56Z"/>
</svg>