<?xml version="1.0" encoding="utf-8"?>
<!-- Generator: Adobe Illustrator 28.3.0, SVG Export Plug-In . SVG Version: 6.00 Build 0)  -->
<svg version="1.1" id="katman_1" xmlns="http://www.w3.org/2000/svg" xmlns:xlink="http://www.w3.org/1999/xlink" x="0px" y="0px"
	 viewBox="0 0 56.7 56.7" style="enable-background:new 0 0 56.7 56.7;" xml:space="preserve">
<style type="text/css">
	.st0{fill:#C8693A;}
</style>
<polygon class="st0" points="34.3,28.3 24.5,23.3 24.5,33.3 "/>
<path class="st0" d="M0,0v56.6h56.7V0H0z M46.3,36.3c-0.4,1.5-1.7,2.5-3.3,2.9C40.1,40,28.3,40,28.3,40s-11.8,0-14.7-0.7
	c-1.6-0.4-2.9-1.5-3.3-2.9c-0.8-2.6-0.8-8.1-0.8-8.1s0-5.5,0.8-8.1c0.4-1.5,1.7-2.6,3.3-3c2.9-0.7,14.7-0.7,14.7-0.7
	s11.7,0,14.7,0.7c1.6,0.4,2.9,1.5,3.3,3c0.8,2.6,0.8,8.1,0.8,8.1S47.1,33.7,46.3,36.3z"/>
</svg>
