<?xml version="1.0" encoding="utf-8"?>
<!-- Generator: Adobe Illustrator 28.3.0, SVG Export Plug-In . SVG Version: 6.00 Build 0)  -->
<svg version="1.1" id="katman_1" xmlns="http://www.w3.org/2000/svg" xmlns:xlink="http://www.w3.org/1999/xlink" x="0px" y="0px"
	 viewBox="0 0 56.7 56.7" style="enable-background:new 0 0 56.7 56.7;" xml:space="preserve">
<style type="text/css">
	.st0{fill:#C8693A;}
</style>
<path class="st0" d="M35.9,13H20.8c-5.2,0.2-7.5,2.6-7.8,7.8v15.1c0.2,4.9,2.6,7.5,7.8,7.8h15.1c5.2-0.2,7.5-2.6,7.8-7.8V20.8
	C43.4,15.6,41.1,13.3,35.9,13z M28.3,38c-5.4,0-9.7-4.2-9.7-9.7s4.2-9.7,9.7-9.7s9.7,4.2,9.7,9.7S33.8,38,28.3,38z M38.5,20.6
	c-1.2,0-2.4-1-2.4-2.4s1-2.4,2.4-2.4c1.2,0,2.4,1,2.4,2.4S39.6,20.6,38.5,20.6z M34.7,28.4c0,3.5-2.8,6.4-6.4,6.4S22,31.9,22,28.4
	s2.8-6.4,6.4-6.4S34.7,24.9,34.7,28.4z M0,0v56.7h56.7V0H0z M47.2,36.1c-0.2,6.8-4.2,10.6-11.1,11.1H20.5c-6.8-0.2-10.6-4-11.1-11.1
	V20.6C9.9,13.7,13.7,10,20.5,9.5h15.6c6.8,0.2,10.6,4.2,11.1,11.1V36.1z"/>
</svg>
