<?xml version="1.0" encoding="utf-8"?>
<!-- Generator: Adobe Illustrator 28.3.0, SVG Export Plug-In . SVG Version: 6.00 Build 0)  -->
<svg version="1.1" id="katman_1" xmlns="http://www.w3.org/2000/svg" xmlns:xlink="http://www.w3.org/1999/xlink" x="0px" y="0px"
	 viewBox="0 0 56.7 56.7" style="enable-background:new 0 0 56.7 56.7;" xml:space="preserve">
<style type="text/css">
	.st0{fill-rule:evenodd;clip-rule:evenodd;fill:#C8693A;}
</style>
<path class="st0" d="M56.7,0H0v56.7h56.7V0z M35.6,22c2.6,1.9,5.8,2.9,9,2.9v-6.5c-1.8,0-3.4-0.5-4.9-1.5c-2.1-1.3-3.5-3.5-3.9-5.9
	c-0.1-0.5-0.2-1.1-0.2-1.6h-6.5v25.7c0,3-2.5,5.5-5.5,5.5c-0.6,0-1.1-0.1-1.7-0.3c-2.9-1-4.5-4-3.5-7c0.5-1.6,1.8-2.9,3.4-3.5
	c1.1-0.4,2.3-0.4,3.4,0v-6.6c-2.4-0.3-4.9,0.1-7,1.2c-2.2,1.1-3.9,2.8-5.1,5c-2.4,4.4-1.8,9.8,1.5,13.6c3.2,3.8,8.5,5.1,13.2,3.4
	c2.3-0.8,4.2-2.4,5.6-4.4c1.4-2,2.1-4.4,2.1-6.8V22C35.6,22,35.6,22,35.6,22z"/>
</svg>
